<svg xmlns="http://www.w3.org/2000/svg" viewBox="0 0 583 447">
  <path fill="none" stroke="#000" stroke-linecap="round" d="M10 11c152-2 305-2 563-1M10 10h563m0 1v427m0-428c-2 161-1 322-1 427m0-1c-207 1-414 2-562 1m563 0c-173 2-346 2-563 0m0 0C8 285 7 132 11 10m-1 427V10m30 23c48-1 95-3 208 0M38 31l210 1m-1 2v41m1-44c0 14 1 27-1 42m2 1c-65 3-130 3-209 0m208 0H39m-2 1c3-16 4-29 3-45m-1 44V32m233 0h280m-279-1c99 2 199 1 280-1m-2 1c-2 91 0 185 1 388m0-388v387m1-1c-71-1-142-2-281-1m280 1-279 1m-1 0V31m1 387c2-106 1-213-1-387M37 91c73 2 146 3 211 0M38 92l208-2m0 0c3 12 0 21 1 43m-1-42 1 42m0 0-208 1m207 0c-75-3-150-2-208 0m0-1c0-17-2-33 1-42m-2 41 1-41m0 54c46-2 94-1 210-3m-209 2h209m1-1v45m-1-44c-1 15 1 31 1 41m-1 1-209-2m209 3-210-1m-1-1c2-12 1-29 3-41m-2 42 1-42m1 60 208-3m-209 2c50-2 102-3 209-1m-1 0c-1 15-1 28 1 44m-1-45v43m0 2c-71-3-143-2-209-3m209 2-209-2m1 1c1-15 1-29-1-41m0 42v-43m2 61c72-2 148-4 207-3m-208 1c75-1 149-2 210 0m-1-1 2 43m-2-43v44m0 0-207-3m207 2H40m1-1c-3-15-1-28-3-41m1 43 1-44m1 61c75 0 153-2 209 1m-210-2 210 1m0 1v43m-1-44 1 43m1-2c-49 0-94-1-209 2m207 0c-58-3-115-3-208 0m0-3c-2-8 2-16-2-42m1 43v-41m0 55 209 2m-211 0h210m0-3c-3 9 1 18-2 42m1-41v43m2 1H40m208-2c-63 3-124 3-209 1m-1 0c0-8 2-18 0-43m0 44v-44M291 62h151m-153 0 151 1M290 96h125m-123-1 122 2m-126 14h148m-150 2h152m-141 47 159 2m-157-3 159 1m-162 21h211m-213-1 212 2m-206 24 194 2m-195-3 197 4m-201 22 159-1m-161 0 160 1m-155 19 178 1m-179 2h178m-179 22 159 1m-161-2 160 4m-155 17 158 1m-159-2 159 4m-159 17 227 3m-225-4 227 5m-227 20 190 1m-191-2 190 3M457 48c28 4 57 4 76 3m-75-1h78m-2 0c0 27 2 56 1 78m0-77-1 79m1 0c-22-2-47 2-77 0m77 1c-19-2-39-2-76-1m-2 1V52m0 78c-1-24 0-51 1-81m29 18c2 0 3 2 5 3 1 2 3 3 3 5 1 2-1 4-2 6l-4 4c-2 1-5 2-7 1l-5-5v-7c0-2 0-4 2-5l10-2c2 0 3 2 3 2m-9-1 4-1c2 0 4 2 5 4l2 7c0 3 1 5-1 7l-7 2-7-3c-2-2-2-4-2-5-1-2-2-3-1-5l6-8-1 1m9 32-33 30m35-32-36 31m37-30 38 25m-40-22 43 23M304 369l69 1m-70-2h70M54 56l116-1M53 55l117 1M52 114l157-4m-156 4 155-3M59 171l133-3m-131 2 130-3M59 228l38-3m-37 2h40m-44 56 157 4m-158-5 160 4M58 344l82-2m-84 1h86m-87 59 96 1m-97 1 96 1"/>
</svg>
